<svg width="78" height="77" viewBox="0 0 78 77" fill="none" xmlns="http://www.w3.org/2000/svg">
<g filter="url(#filter0_d_2_11)">
<path d="M4 22.5746C4 15.0673 9.55009 8.71608 16.9897 7.70996L56.9897 2.30044C65.9909 1.08313 74 8.082 74 17.1651V53.0841C74 62.4235 65.5571 69.4923 56.3631 67.8506L12.2421 59.9718C7.47281 59.1201 4 54.9723 4 50.1275V22.5746Z" fill="black"/>
</g>
<g filter="url(#filter1_d_2_11)">
<path d="M52.5 36L55.8945 41.8279L62.4861 43.2553L57.9924 48.2846L58.6717 54.9947L52.5 52.275L46.3283 54.9947L47.0076 48.2846L42.5139 43.2553L49.1055 41.8279L52.5 36Z" fill="white" shape-rendering="crispEdges"/>
<path d="M52.6296 35.9245L52.5 35.702L52.3704 35.9245L49.0092 41.6953L42.4822 43.1087L42.2305 43.1632L42.4021 43.3553L46.8518 48.3352L46.179 54.9796L46.1531 55.2358L46.3887 55.1319L52.5 52.4389L58.6113 55.1319L58.8469 55.2358L58.821 54.9796L58.1482 48.3352L62.598 43.3553L62.7695 43.1632L62.5178 43.1087L55.9908 41.6953L52.6296 35.9245Z" stroke="#00D1FF" stroke-opacity="0.82" stroke-width="0.3" shape-rendering="crispEdges"/>
</g>
<g filter="url(#filter2_d_2_11)">
<path d="M52.5 10L55.8945 15.8279L62.4861 17.2553L57.9924 22.2846L58.6717 28.9947L52.5 26.275L46.3283 28.9947L47.0076 22.2846L42.5139 17.2553L49.1055 15.8279L52.5 10Z" fill="white" shape-rendering="crispEdges"/>
<path d="M52.6296 9.92451L52.5 9.70197L52.3704 9.92451L49.0092 15.6953L42.4822 17.1087L42.2305 17.1632L42.4021 17.3553L46.8518 22.3352L46.179 28.9796L46.1531 29.2358L46.3887 29.1319L52.5 26.4389L58.6113 29.1319L58.8469 29.2358L58.821 28.9796L58.1482 22.3352L62.598 17.3553L62.7695 17.1632L62.5178 17.1087L55.9908 15.6953L52.6296 9.92451Z" stroke="#00D1FF" stroke-opacity="0.82" stroke-width="0.3" shape-rendering="crispEdges"/>
</g>
<g filter="url(#filter3_d_2_11)">
<path d="M25.5 23L28.8945 28.8279L35.4861 30.2553L30.9924 35.2846L31.6717 41.9947L25.5 39.275L19.3283 41.9947L20.0076 35.2846L15.5139 30.2553L22.1055 28.8279L25.5 23Z" fill="white" shape-rendering="crispEdges"/>
<path d="M25.6296 22.9245L25.5 22.702L25.3704 22.9245L22.0092 28.6953L15.4822 30.1087L15.2305 30.1632L15.4021 30.3553L19.8518 35.3352L19.179 41.9796L19.1531 42.2358L19.3887 42.1319L25.5 39.4389L31.6113 42.1319L31.8469 42.2358L31.821 41.9796L31.1482 35.3352L35.598 30.3553L35.7695 30.1632L35.5178 30.1087L28.9908 28.6953L25.6296 22.9245Z" stroke="#00D1FF" stroke-opacity="0.82" stroke-width="0.3" shape-rendering="crispEdges"/>
</g>
<defs>
<filter id="filter0_d_2_11" x="0" y="2.1626" width="78" height="73.9257" filterUnits="userSpaceOnUse" color-interpolation-filters="sRGB">
<feFlood flood-opacity="0" result="BackgroundImageFix"/>
<feColorMatrix in="SourceAlpha" type="matrix" values="0 0 0 0 0 0 0 0 0 0 0 0 0 0 0 0 0 0 127 0" result="hardAlpha"/>
<feOffset dy="4"/>
<feGaussianBlur stdDeviation="2"/>
<feComposite in2="hardAlpha" operator="out"/>
<feColorMatrix type="matrix" values="0 0 0 0 0 0 0 0 0 0 0 0 0 0 0 0 0 0 0.25 0"/>
<feBlend mode="normal" in2="BackgroundImageFix" result="effect1_dropShadow_2_11"/>
<feBlend mode="normal" in="SourceGraphic" in2="effect1_dropShadow_2_11" result="shape"/>
</filter>
<filter id="filter1_d_2_11" x="40.947" y="35.4039" width="23.106" height="25.073" filterUnits="userSpaceOnUse" color-interpolation-filters="sRGB">
<feFlood flood-opacity="0" result="BackgroundImageFix"/>
<feColorMatrix in="SourceAlpha" type="matrix" values="0 0 0 0 0 0 0 0 0 0 0 0 0 0 0 0 0 0 127 0" result="hardAlpha"/>
<feOffset dy="4"/>
<feGaussianBlur stdDeviation="0.5"/>
<feComposite in2="hardAlpha" operator="out"/>
<feColorMatrix type="matrix" values="0 0 0 0 0 0 0 0 0 0 0 0 0 0 0 0 0 0 0.25 0"/>
<feBlend mode="normal" in2="BackgroundImageFix" result="effect1_dropShadow_2_11"/>
<feBlend mode="normal" in="SourceGraphic" in2="effect1_dropShadow_2_11" result="shape"/>
</filter>
<filter id="filter2_d_2_11" x="40.947" y="9.40393" width="23.106" height="25.073" filterUnits="userSpaceOnUse" color-interpolation-filters="sRGB">
<feFlood flood-opacity="0" result="BackgroundImageFix"/>
<feColorMatrix in="SourceAlpha" type="matrix" values="0 0 0 0 0 0 0 0 0 0 0 0 0 0 0 0 0 0 127 0" result="hardAlpha"/>
<feOffset dy="4"/>
<feGaussianBlur stdDeviation="0.5"/>
<feComposite in2="hardAlpha" operator="out"/>
<feColorMatrix type="matrix" values="0 0 0 0 0 0 0 0 0 0 0 0 0 0 0 0 0 0 0.25 0"/>
<feBlend mode="normal" in2="BackgroundImageFix" result="effect1_dropShadow_2_11"/>
<feBlend mode="normal" in="SourceGraphic" in2="effect1_dropShadow_2_11" result="shape"/>
</filter>
<filter id="filter3_d_2_11" x="13.947" y="22.4039" width="23.106" height="25.073" filterUnits="userSpaceOnUse" color-interpolation-filters="sRGB">
<feFlood flood-opacity="0" result="BackgroundImageFix"/>
<feColorMatrix in="SourceAlpha" type="matrix" values="0 0 0 0 0 0 0 0 0 0 0 0 0 0 0 0 0 0 127 0" result="hardAlpha"/>
<feOffset dy="4"/>
<feGaussianBlur stdDeviation="0.5"/>
<feComposite in2="hardAlpha" operator="out"/>
<feColorMatrix type="matrix" values="0 0 0 0 0 0 0 0 0 0 0 0 0 0 0 0 0 0 0.25 0"/>
<feBlend mode="normal" in2="BackgroundImageFix" result="effect1_dropShadow_2_11"/>
<feBlend mode="normal" in="SourceGraphic" in2="effect1_dropShadow_2_11" result="shape"/>
</filter>
</defs>
</svg>
